<svg width="21" height="20" viewBox="0 0 21 20" fill="none" xmlns="http://www.w3.org/2000/svg">
<path d="M17.3943 3.10572C16.0307 1.74215 14.2934 0.813555 12.4021 0.437349C10.5108 0.0611419 8.55042 0.254224 6.76884 0.992178C4.98726 1.73013 3.46452 2.97981 2.39317 4.58319C1.32183 6.18657 0.75 8.07164 0.75 10C0.75 11.9284 1.32183 13.8134 2.39317 15.4168C3.46452 17.0202 4.98726 18.2699 6.76884 19.0078C8.55042 19.7458 10.5108 19.9389 12.4021 19.5627C14.2934 19.1865 16.0307 18.2579 17.3943 16.8943C19.2203 15.0645 20.2458 12.585 20.2458 10C20.2458 7.41497 19.2203 4.93551 17.3943 3.10572ZM13.8743 11.875C13.8743 12.0739 13.7953 12.2647 13.6546 12.4053C13.514 12.546 13.3232 12.625 13.1243 12.625C12.9254 12.625 12.7346 12.546 12.5939 12.4053C12.4533 12.2647 12.3743 12.0739 12.3743 11.875V9.18555L8.40455 13.1553C8.26386 13.2957 8.07319 13.3745 7.87444 13.3744C7.67569 13.3743 7.48511 13.2953 7.34457 13.1547C7.20403 13.0142 7.12503 12.8236 7.12492 12.6248C7.12481 12.4261 7.20361 12.2354 7.344 12.0947L11.3137 8.12501H8.62428C8.42536 8.12501 8.2346 8.04599 8.09395 7.90534C7.95329 7.76469 7.87428 7.57392 7.87428 7.37501C7.87428 7.1761 7.95329 6.98533 8.09395 6.84468C8.2346 6.70403 8.42536 6.62501 8.62428 6.62501H13.1243C13.323 6.62569 13.5133 6.70492 13.6539 6.84543C13.7944 6.98593 13.8736 7.1763 13.8743 7.37501V11.875Z" fill="black"/>
</svg>
