<svg xmlns="http://www.w3.org/2000/svg" xmlns:xlink="http://www.w3.org/1999/xlink" viewBox="0,0,256,256" width="24px" height="24px"><g fill="#666666" fill-rule="nonzero" stroke="none" stroke-width="1" stroke-linecap="butt" stroke-linejoin="miter" stroke-miterlimit="10" stroke-dasharray="" stroke-dashoffset="0" font-family="none" font-weight="none" font-size="none" text-anchor="none" style="mix-blend-mode: normal"><g transform="scale(10.66667,10.66667)"><path d="M7,2c-1.64497,0 -3,1.35503 -3,3v14c0,1.64497 1.35503,3 3,3h13v-2h-13c-0.56503,0 -1,-0.43497 -1,-1c0,-0.56503 0.43497,-1 1,-1h13v-2v-14h-4h-6zM7,4h3v8.12305l1.57422,-1.10352l1.42578,-1.00195l3,2.10547v-8.12305h2v12h-11c-0.35184,0 -0.68511,0.07394 -1,0.1875v-11.1875c0,-0.56503 0.43497,-1 1,-1zM12,4h2v4.27734l-1,-0.70117l-1,0.70117z"></path></g></g></svg>