<svg width="17" height="17" viewBox="0 0 17 17" fill="none" xmlns="http://www.w3.org/2000/svg">
<path fill-rule="evenodd" clip-rule="evenodd" d="M8.37017 1.46978L7.83984 0.939453L6.77918 2.00011L7.30951 2.53044L7.52918 2.75011H4.21484C2.35088 2.75011 0.839844 4.26115 0.839844 6.12511C0.839844 7.98907 2.35088 9.50011 4.21484 9.50011H13.4648C14.5003 9.50011 15.3398 10.3396 15.3398 11.3751C15.3398 12.4106 14.5003 13.2501 13.4648 13.2501H5.72539C5.40682 12.2358 4.45925 11.5001 3.33984 11.5001C1.95913 11.5001 0.839844 12.6194 0.839844 14.0001C0.839844 15.3808 1.95913 16.5001 3.33984 16.5001C4.45925 16.5001 5.40682 15.7644 5.72539 14.7501H13.4648C15.3288 14.7501 16.8398 13.2391 16.8398 11.3751C16.8398 9.51115 15.3288 8.00011 13.4648 8.00011H4.21484C3.17931 8.00011 2.33984 7.16064 2.33984 6.12511C2.33984 5.08958 3.17931 4.25011 4.21484 4.25011H7.52918L7.30951 4.46978L6.77918 5.00011L7.83984 6.06077L8.37017 5.53044L9.69339 4.20722C10.0839 3.81669 10.0839 3.18353 9.69339 2.793L8.37017 1.46978ZM3.33984 15.0001C3.89212 15.0001 4.33984 14.5524 4.33984 14.0001C4.33984 13.4478 3.89212 13.0001 3.33984 13.0001C2.78756 13.0001 2.33984 13.4478 2.33984 14.0001C2.33984 14.5524 2.78756 15.0001 3.33984 15.0001ZM15.3398 3.50011C15.3398 4.0524 14.8921 4.50011 14.3398 4.50011C13.7875 4.50011 13.3398 4.0524 13.3398 3.50011C13.3398 2.94783 13.7875 2.50011 14.3398 2.50011C14.8921 2.50011 15.3398 2.94783 15.3398 3.50011ZM16.8398 3.50011C16.8398 4.88082 15.7205 6.00011 14.3398 6.00011C12.9591 6.00011 11.8398 4.88082 11.8398 3.50011C11.8398 2.1194 12.9591 1.00011 14.3398 1.00011C15.7205 1.00011 16.8398 2.1194 16.8398 3.50011Z" fill="white"/>
</svg>
