<svg width="17" height="17" viewBox="0 0 17 17" fill="none" xmlns="http://www.w3.org/2000/svg">
<path fill-rule="evenodd" clip-rule="evenodd" d="M6.19072 2.31278C6.80375 2.03878 7.46707 1.85697 8.16357 1.78504L8.00949 0.292969C7.15214 0.381505 6.33442 0.605532 5.57864 0.943338L6.19072 2.31278ZM9.51657 1.78504C12.7882 2.12289 15.3401 4.88906 15.3401 8.25031C15.3401 11.8402 12.43 14.7503 8.84007 14.7503C5.47907 14.7503 2.71304 12.1988 2.37486 8.92753L0.882812 9.08177C1.29922 13.1097 4.7024 16.2503 8.84007 16.2503C13.2584 16.2503 16.8401 12.6686 16.8401 8.25031C16.8401 4.11234 13.699 0.708971 9.67065 0.292969L9.51657 1.78504ZM3.57978 4.43115C3.9815 3.87892 4.46809 3.39226 5.02027 2.99049L4.13774 1.77758C3.45881 2.27159 2.8607 2.86976 2.36677 3.54876L3.57978 4.43115ZM2.37486 7.5731C2.44684 6.87687 2.62862 6.21379 2.90253 5.60097L1.53309 4.98889C1.1954 5.74441 0.971411 6.56183 0.882812 7.41885L2.37486 7.5731ZM9.59007 5.00031V4.25031H8.09007V5.00031V8.12531C8.09007 8.44007 8.23826 8.73646 8.49007 8.92531L10.3901 10.3503L10.9901 10.8003L11.8901 9.60031L11.2901 9.1503L9.59007 7.87531V5.00031Z" fill="white"/>
</svg>
