<?xml version="1.0" encoding="utf-8"?>
<!-- Generator: Adobe Illustrator 26.5.0, SVG Export Plug-In . SVG Version: 6.00 Build 0)  -->
<svg version="1.0" id="katman_1" xmlns="http://www.w3.org/2000/svg" xmlns:xlink="http://www.w3.org/1999/xlink" x="0px" y="0px"
	 viewBox="0 0 1190.55 841.89" style="enable-background:new 0 0 1190.55 841.89;" xml:space="preserve">
<style type="text/css">
	.st0{fill-rule:evenodd;clip-rule:evenodd;fill:#3B4F9E;}
</style>
<path class="st0" d="M225.48,306.62c-75.19,7.75-120.88,90.26-88.44,159.73c36.57,78.31,141.74,86.95,189.77,15.57
	c3.91-5.81,9.67-16.61,9.36-17.55c-0.11-0.34-10.16-10.79-22.33-23.23l-22.13-22.61l22.51-23.08l22.51-23.08l-3.11-5.88
	C311.74,325.17,269.94,302.04,225.48,306.62z M251.38,323.11c26.72,4.66,50.14,20.37,64.34,43.18l2,3.21l-18.48,18.91l-18.48,18.91
	l-22.22-22.89l-22.22-22.89l-27.85,28.49l-27.85,28.49l27.76,28.41l27.76,28.41l22.43-22.95l22.43-22.95l18.37,18.8l18.37,18.8
	l-1.39,2.43c-35.15,61.37-126.53,59.8-161.76-2.78C115.15,396.67,173.83,309.6,251.38,323.11z M414.78,381.96
	c-25.13,3.47-38.34,31.09-26.26,54.88c11.1,21.85,43.06,24.89,58.6,5.57c3.1-3.85,3.24-3.54-3.35-7.44
	c-5.36-3.17-5.76-3.32-6.42-2.39c-9.36,13.33-30.74,11.33-37.38-3.5c-5.1-11.4-0.9-26.01,8.91-30.99
	c10.06-5.11,23.03-2.31,28.34,6.12l0.78,1.24l5.74-3.39c6.64-3.92,6.53-3.64,3.12-7.78C439.14,384.93,427,380.27,414.78,381.96z
	 M253.38,401.19l16.68,17.08l-16.96,17.35l-16.96,17.35l-16.81-17.21l-16.81-17.21l16.81-17.21c9.25-9.47,16.94-17.21,17.09-17.21
	C236.58,384.11,244.21,391.8,253.38,401.19z M582.05,391.1l-6.01,1.95v5.09v5.09h-4.27h-4.27v6.28v6.28h4.23h4.23l0.18,13.8
	c0.27,21.45,4.42,26.43,20.6,24.68l3.34-0.36v-5.95v-5.95h-3.71c-7.29,0-7.5-0.41-7.5-15.05v-11.18h5.61h5.61v-6.28v-6.28h-5.61
	h-5.61v-7.1c0-3.91-0.18-7.08-0.4-7.04C588.23,389.12,585.35,390.03,582.05,391.1z M732.1,391.1l-6,1.95v5.09v5.09h-4.27h-4.28v6.28
	v6.28h4.23h4.23l0.17,13.8c0.27,21.45,4.42,26.43,20.6,24.68l3.34-0.36v-5.95v-5.95h-3.71c-7.3,0-7.5-0.41-7.5-15.05v-11.18h5.61
	h5.61v-6.28v-6.28h-5.61h-5.61v-7.1c0-3.91-0.18-7.08-0.4-7.04C738.29,389.12,735.4,390.03,732.1,391.1z M477.25,402.18
	c-15.48,2.09-25.42,17.43-21.55,33.26c4.95,20.25,30.59,26.72,44.44,11.21C516.61,428.21,501.53,398.91,477.25,402.18z
	 M538.66,402.36c-3.61,0.82-6.14,2.12-8.41,4.33l-1.74,1.69v-2.57v-2.57h-6.41h-6.41v25.41v25.41h6.41h6.41l0-15.16
	c0-20.88,1.64-24.67,10.7-24.71c8.43-0.04,9.59,2.82,9.59,23.62v16.29l6.54-0.15l6.54-0.15l0.14-14.21
	c0.29-27.97-2.81-35.22-15.97-37.4C542.09,401.51,542.42,401.5,538.66,402.36z M628.1,402.21c-27.82,3.59-30.19,44.9-2.98,52.11
	c9.81,2.6,19.88,0.17,26.46-6.39l3.22-3.21l-2.4-1.52c-1.32-0.84-3.64-2.23-5.15-3.09l-2.75-1.57l-1.92,1.5
	c-6.86,5.36-18.55,3.74-22-3.04c-1.69-3.32-2.51-3.17,17.63-3.17h18.37l0.36-2.16C659.67,415.15,644.89,400.04,628.1,402.21z
	 M689.36,402.21c-3.43,0.58-6.74,2.22-9.06,4.48l-1.74,1.69v-2.57v-2.57h-6.41h-6.41v25.41v25.41h6.41h6.41l0-15.16
	c0-20.88,1.64-24.67,10.69-24.71c8.43-0.04,9.59,2.82,9.59,23.6v16.28h6.44h6.43l-0.16-18.99l-0.16-18.99l-1.41-3.07
	c-3.11-6.78-12.06-12.57-17.55-11.34C692.3,401.7,690.91,401.94,689.36,402.21z M772.93,402.2c-10.48,1.57-16.67,9.5-14.58,18.71
	c1.37,6.04,5.11,9.19,14.66,12.37c9.15,3.04,10.21,3.73,10.21,6.58c0,5.7-14.19,3.7-16.14-2.27c-0.2-0.62-7.45,3.03-10.23,5.14
	c-2.75,2.09,5.23,9.78,12.07,11.65c15.79,4.3,29.74-5.09,27.08-18.22c-1.28-6.32-5.23-9.69-14.92-12.73
	c-9.13-2.86-10.9-4.22-9.53-7.31c1.62-3.64,8.75-3.15,11.78,0.8l1.36,1.78l5.4-2.94c6.34-3.45,6.12-2.88,2.66-6.76
	C787.77,403.4,780.8,401.02,772.93,402.2z M822.36,402.15c-14.54,2.17-23.98,19.16-19.4,34.9c4.88,16.75,24.17,23.77,36.73,13.35
	l2.27-1.88v12.88v12.88h6.41h6.41v-35.52v-35.52h-6.41h-6.41v2.79v2.79l-1.89-1.7c-3.42-3.07-10.83-5.88-14.4-5.45
	C825.39,401.71,823.89,401.92,822.36,402.15z M941.02,402.21c-16.65,2.47-25.75,23.62-17.22,40.01c6.9,13.24,24.43,17.3,34.73,8.04
	l1.98-1.78v2.79v2.79h6.41h6.41v-25.41v-25.41h-6.41h-6.41v2.83v2.83l-1.47-1.38C954.16,402.93,948.13,401.16,941.02,402.21z
	 M1038.74,402.19c-27.68,3.67-30.12,44.93-3.09,52.09c10.96,2.91,25.06-1.46,28.99-8.98c0.7-1.34-8.8-7.04-10.12-6.08
	c-8.3,6.04-19.68,4.92-23.34-2.3c-1.6-3.14-1.88-3.09,17.94-3.09h18.15l0.35-1.92C1070.63,415.45,1055.58,399.96,1038.74,402.19z
	 M1007.4,402.91c-3.54,0.97-6.63,3.24-8.47,6.2l-1.58,2.54v-4.21v-4.21h-6.41h-6.41v25.41v25.41h6.36h6.36l0.18-14.07
	c0.25-18.98,2.56-23.09,12.97-23.09h1.9v-7.38C1012.31,401.13,1012.57,401.48,1007.4,402.91z M865.47,420.59
	c0.01,18.94,0.22,20.77,3.07,25.97c5.09,9.28,19.71,11.79,27.55,4.72l2.41-2.17l0.17,2.34l0.16,2.34l6.54,0.15l6.54,0.15v-25.43
	v-25.43h-6.68h-6.67v15.37c0,21-1.51,24.52-10.53,24.52c-8.41,0-9.74-3.25-9.75-23.91l-0.01-15.98h-6.41h-6.41L865.47,420.59z
	 M637.89,415.22c2.28,1.2,3.89,2.88,5.11,5.34c1.76,3.56,2.15,3.44-11.42,3.44c-13.79,0-13.17,0.24-10.69-4.18
	C624.05,414.16,631.86,412.05,637.89,415.22z M1048.42,415.16c2.38,1.25,3.98,2.91,5.21,5.4c1.76,3.56,2.15,3.44-11.42,3.44
	c-8.15,0-12.28-0.19-12.28-0.57C1029.93,416.63,1041.42,411.49,1048.42,415.16z M484.93,415.49c13.11,4.04,11.83,24.08-1.7,26.66
	c-10.4,1.98-18.36-8.34-14.52-18.83C471.14,416.67,478.01,413.36,484.93,415.49z M835.57,416.67c9.16,6.29,7.74,21.16-2.39,25.12
	c-10.76,4.21-21.07-5.86-17.97-17.56C817.42,415.84,828.43,411.76,835.57,416.67z M951.62,415.3c8.99,2.56,11.77,16.44,4.69,23.46
	c-8.84,8.77-22.75,2.58-22.75-10.12C933.56,418.36,941.56,412.45,951.62,415.3z"/>
</svg>
