<svg width="17" height="17" viewBox="0 0 17 17" fill="none" xmlns="http://www.w3.org/2000/svg">
<path fill-rule="evenodd" clip-rule="evenodd" d="M8.83984 0.404297L9.18585 0.584225L15.4358 3.83422L15.8398 4.04429V4.49963V11.9996V12.4549L15.4358 12.665L9.18585 15.915L8.83984 16.0949L8.49383 15.915L2.24383 12.665L1.83984 12.4549V11.9996V4.49963V4.04429L2.24383 3.83422L8.49383 0.584225L8.83984 0.404297ZM3.33984 11.5443V5.69021L8.08984 8.06522V14.0143L3.33984 11.5443ZM9.58984 14.0143L14.3398 11.5443V5.69019L9.58984 8.06519V14.0143ZM8.83984 2.09497L13.4164 4.47482L8.83982 6.76315L4.26319 4.47483L8.83984 2.09497Z" fill="white"/>
</svg>
