<svg width="22" height="22" viewBox="0 0 22 22" fill="none" xmlns="http://www.w3.org/2000/svg">
<rect width="22" height="22" rx="11" fill="black"/>
<g clip-path="url(#clip0_605_696)">
<g clip-path="url(#clip1_605_696)">
<path d="M8.42604 15.8336H13.1536C13.4743 15.8336 13.7123 15.7529 13.8699 15.5914C14.0275 15.43 14.1056 15.1764 14.1056 14.8314V11.2272C14.1056 10.885 14.0275 10.6322 13.8699 10.4693C13.7123 10.3064 13.4743 10.225 13.1536 10.225H8.5265C8.2035 10.225 7.94695 10.3072 7.75609 10.4722C7.56523 10.6364 7.47018 10.8879 7.47018 11.2272V14.8314C7.47018 15.1772 7.549 15.43 7.70586 15.5914C7.8635 15.7529 8.10382 15.8336 8.42682 15.8336H8.42604ZM8.25991 10.5586H9.06354V8.89216C9.06354 8.48073 9.14236 8.13501 9.30077 7.85359C9.44527 7.58573 9.66473 7.36501 9.93209 7.21644C10.194 7.07359 10.4885 6.9993 10.7875 7.00144C11.0958 7.00144 11.381 7.07359 11.6437 7.21716C11.9049 7.3593 12.1158 7.57144 12.2765 7.85287C12.438 8.13501 12.5176 8.48073 12.5176 8.89216V10.5586H13.3174V8.99716C13.3174 8.3793 13.1961 7.86644 12.9558 7.4593C12.7139 7.05216 12.401 6.7493 12.0146 6.5493C11.6367 6.35144 11.2156 6.24859 10.7875 6.25001C10.3548 6.25001 9.94523 6.35001 9.56041 6.5493C9.17404 6.7493 8.86109 7.05287 8.62 7.46001C8.37968 7.86644 8.25913 8.37859 8.25913 8.99716V10.5586H8.25991Z" fill="white"/>
</g>
</g>
<defs>
<clipPath id="clip0_605_696">
<rect width="8.5" height="10" fill="white" transform="translate(6.75 6.25)"/>
</clipPath>
<clipPath id="clip1_605_696">
<rect width="8.5" height="10" fill="white" transform="translate(6.75 6.25)"/>
</clipPath>
</defs>
</svg>
