<svg width="33" height="33" viewBox="0 0 33 33" fill="none" xmlns="http://www.w3.org/2000/svg">
<rect width="33" height="33" rx="16.5" fill="#DDDDDD"/>
<g clip-path="url(#clip0_605_776)">
<path fill-rule="evenodd" clip-rule="evenodd" d="M12.676 20.324C12.7885 20.4364 12.941 20.4995 13.1 20.4995C13.259 20.4995 13.4115 20.4364 13.524 20.324L19.3 14.548V19.1C19.3 19.2591 19.3632 19.4117 19.4757 19.5243C19.5882 19.6368 19.7409 19.7 19.9 19.7C20.0591 19.7 20.2117 19.6368 20.3243 19.5243C20.4368 19.4117 20.5 19.2591 20.5 19.1V13.1C20.5 12.9409 20.4368 12.7883 20.3243 12.6757C20.2117 12.5632 20.0591 12.5 19.9 12.5H13.9C13.7409 12.5 13.5882 12.5632 13.4757 12.6757C13.3632 12.7883 13.3 12.9409 13.3 13.1C13.3 13.2591 13.3632 13.4117 13.4757 13.5243C13.5882 13.6368 13.7409 13.7 13.9 13.7H18.452L12.676 19.476C12.5636 19.5885 12.5005 19.741 12.5005 19.9C12.5005 20.059 12.5636 20.2115 12.676 20.324Z" fill="black"/>
</g>
<defs>
<clipPath id="clip0_605_776">
<rect width="16" height="16" fill="white" transform="translate(8.5 8.5)"/>
</clipPath>
</defs>
</svg>
