<svg width="423" height="64" viewBox="0 0 423 64" fill="none" xmlns="http://www.w3.org/2000/svg">
<g clip-path="url(#clip0_63_11144)">
<path d="M99.9967 56.2805C97.3694 55.1522 95.0096 53.4826 93.0712 51.3806C91.1038 49.28 89.6349 46.7632 88.7735 44.017L96.4381 40.7048C97.516 43.4325 99.3485 45.7968 101.721 47.5209C103.984 49.1493 106.708 50.0125 109.495 49.9845C111.566 50.0933 113.613 49.4949 115.299 48.2874C115.984 47.7641 116.531 47.082 116.894 46.2998C117.256 45.5176 117.423 44.659 117.379 43.7981C117.42 42.4485 116.939 41.135 116.038 40.13C114.921 39.0525 113.559 38.2633 112.069 37.8306L102.378 34.7373C98.9596 33.797 95.8819 31.8972 93.5091 29.2626C91.5351 26.8479 90.4783 23.8131 90.5254 20.6945C90.4722 17.9858 91.2145 15.321 92.6605 13.0299C94.0991 10.7814 96.1376 8.97997 98.5459 7.82885C101.291 6.5356 104.299 5.89835 107.333 5.96743C111.553 5.87009 115.701 7.07433 119.213 9.41653C122.502 11.6179 124.99 14.8257 126.303 18.5594L118.775 21.899C117.928 19.5328 116.369 17.4866 114.313 16.041C112.289 14.6418 109.876 13.9141 107.415 13.9606C105.383 13.8601 103.38 14.4698 101.749 15.6851C101.06 16.2146 100.507 16.9003 100.136 17.6857C99.7646 18.4711 99.5855 19.3336 99.6135 20.2018C99.6027 21.5645 100.101 22.8821 101.01 23.8973C102.123 25.0698 103.532 25.9208 105.088 26.3609L114.395 29.2626C122.425 31.8357 126.44 36.4892 126.44 43.2232C126.496 45.9479 125.712 48.6239 124.195 50.8879C122.656 53.152 120.526 54.9509 118.036 56.0889C115.176 57.4217 112.048 58.0774 108.893 58.0051C105.841 58.0488 102.812 57.4617 99.9967 56.2805Z" fill="#202847"/>
<path d="M138.32 55.4868C135.514 53.8104 133.223 51.3958 131.695 48.5064C130.089 45.5023 129.27 42.1403 129.314 38.734C129.246 35.2955 130.076 31.8987 131.723 28.8794C133.268 26.0715 135.537 23.7277 138.292 22.0907C141.102 20.4067 144.324 19.5349 147.599 19.5723C151.023 19.4663 154.408 20.3196 157.372 22.0359C159.957 23.6214 162.058 25.8839 163.449 28.5783C164.867 31.3665 165.59 34.4563 165.557 37.5843C165.598 38.2497 165.598 38.9171 165.557 39.5826C165.508 40.1696 165.388 40.7486 165.201 41.3071H138.511C138.701 42.9667 139.298 44.5535 140.251 45.9254C141.204 47.2973 142.482 48.4115 143.971 49.1682C145.46 49.925 147.114 50.3006 148.784 50.2616C150.453 50.2225 152.088 49.7699 153.54 48.9444C154.926 48.1063 156.075 46.9286 156.879 45.5227L164.079 49.0539C162.827 51.7781 160.748 54.0386 158.138 55.5141C155.152 57.2564 151.741 58.1375 148.284 58.0599C144.79 58.1268 141.344 57.237 138.32 55.4868ZM141.878 28.8794C140.199 30.3421 139.085 32.3471 138.73 34.5458H156.031C155.858 32.4363 154.877 30.475 153.293 29.071C151.697 27.6169 149.593 26.8498 147.435 26.9359C145.415 26.9255 143.452 27.6119 141.878 28.8794Z" fill="#202847"/>
<path d="M168.896 20.3935H177.108V26.0052C177.892 24.0834 179.353 22.5155 181.215 21.598C183.092 20.7658 185.129 20.3547 187.182 20.3935H191.617L191.124 28.2498H186.142C185.024 28.2032 183.908 28.3855 182.863 28.7856C181.818 29.1857 180.866 29.7952 180.065 30.5766C179.256 31.4536 178.632 32.4854 178.232 33.6098C177.832 34.7342 177.664 35.9279 177.738 37.1189V57.2387H168.896V20.3935Z" fill="#202847"/>
<path d="M189.783 20.3935H199.473L208.205 44.4278L216.965 20.3935H226.655L212.147 57.2387H204.291L189.783 20.3935Z" fill="#202847"/>
<path d="M229.475 6.76126H238.344V16.26H229.475V6.76126ZM229.475 20.4482H238.344V57.2386H229.475V20.4482Z" fill="#202847"/>
<path d="M251.045 55.5142C248.185 53.863 245.814 51.4826 244.174 48.616C242.486 45.5997 241.627 42.1902 241.683 38.734C241.621 35.3033 242.482 31.9188 244.174 28.9342C245.808 26.0771 248.182 23.713 251.045 22.0907C253.658 20.6557 256.553 19.8092 259.527 19.6106C262.501 19.412 265.483 19.8661 268.263 20.941C270.427 21.7699 272.401 23.0268 274.067 24.6365C275.663 26.2606 276.887 28.2129 277.653 30.3576L269.851 33.752C269.174 31.9608 267.984 30.4089 266.429 29.2901C264.833 28.1539 262.914 27.5591 260.955 27.5929C259.12 27.555 257.313 28.0494 255.754 29.0163C254.232 29.9831 253.002 31.3457 252.195 32.9581C251.315 34.7446 250.874 36.7154 250.908 38.7066C250.88 40.6885 251.321 42.6489 252.195 44.4278C253.001 46.0479 254.231 47.4196 255.754 48.397C257.319 49.3512 259.122 49.8446 260.955 49.8204C262.911 49.8622 264.829 49.2771 266.429 48.1506C267.983 47.078 269.175 45.5608 269.851 43.7982L277.653 47.3294C276.908 49.3993 275.7 51.2718 274.121 52.8042C272.454 54.4791 270.46 55.7929 268.263 56.6639C265.925 57.6094 263.422 58.0838 260.9 58.0599C257.446 58.1071 254.044 57.2281 251.045 55.5142Z" fill="#202847"/>
<path d="M288.301 55.4867C285.494 53.8033 283.195 51.3911 281.649 48.5063C280.065 45.4951 279.256 42.1364 279.295 38.7339C279.231 35.2992 280.051 31.9057 281.677 28.8793C283.241 26.0758 285.516 23.7342 288.274 22.0906C291.082 20.4026 294.305 19.5305 297.581 19.5722C300.996 19.4625 304.373 20.3163 307.326 22.0359C309.927 23.6097 312.04 25.8745 313.43 28.5782C314.848 31.3665 315.571 34.4562 315.538 37.5842C315.538 38.2685 315.538 38.9255 315.538 39.5825C315.494 40.1728 315.365 40.7536 315.155 41.307H288.602C288.787 42.9659 289.381 44.5528 290.33 45.9253C291.28 47.2978 292.556 48.4128 294.043 49.1701C295.531 49.9273 297.183 50.3032 298.852 50.2638C300.52 50.2244 302.153 49.771 303.603 48.9443C304.991 48.0996 306.148 46.924 306.97 45.5226L314.142 49.0538C312.908 51.7814 310.837 54.0445 308.229 55.514C305.241 57.2523 301.831 58.1332 298.375 58.0598C294.844 58.1469 291.358 57.2564 288.301 55.4867ZM291.86 28.8793C290.18 30.3421 289.066 32.347 288.712 34.5457H306.039C305.967 33.4977 305.687 32.4745 305.217 31.5349C304.748 30.5953 304.097 29.7579 303.302 29.0709C301.706 27.6168 299.601 26.8497 297.444 26.9358C295.413 26.9145 293.438 27.6018 291.86 28.8793Z" fill="#202847"/>
<path d="M318.85 6.76126H340.12C344.364 6.51212 348.547 7.87059 351.836 10.5662C353.273 11.8814 354.402 13.4988 355.14 15.3021C355.879 17.1053 356.209 19.0498 356.106 20.9957C356.126 22.7171 355.775 24.4227 355.076 25.9958C354.377 27.569 353.346 28.9727 352.055 30.1111C354.116 31.335 355.764 33.1459 356.79 35.3122C357.692 37.3648 358.15 39.5851 358.132 41.8271C358.243 43.9529 357.872 46.0764 357.048 48.0389C356.223 50.0013 354.965 51.7519 353.369 53.1599C349.599 56.0955 344.889 57.5554 340.12 57.266H318.85V6.76126ZM340.585 26.3335C341.414 26.3771 342.243 26.2542 343.023 25.9721C343.804 25.69 344.52 25.2544 345.129 24.6911C345.691 24.1292 346.132 23.4578 346.424 22.7185C346.716 21.9792 346.853 21.1878 346.826 20.3934C346.862 19.6102 346.729 18.8285 346.436 18.1012C346.143 17.3739 345.697 16.718 345.129 16.1779C343.874 15.0879 342.245 14.5284 340.585 14.6176H328.075V26.3335H340.585ZM341.078 49.1086C343.173 49.2163 345.227 48.4989 346.799 47.1103C347.513 46.4284 348.073 45.6018 348.441 44.6859C348.809 43.77 348.977 42.786 348.934 41.7998C348.994 40.7872 348.834 39.7737 348.465 38.8288C348.097 37.8838 347.528 37.0297 346.799 36.325C345.227 34.9364 343.173 34.219 341.078 34.3267H328.075V49.0265L341.078 49.1086Z" fill="#202847"/>
<path d="M370.012 55.4867C367.218 53.7952 364.931 51.3845 363.387 48.5064C361.781 45.5022 360.962 42.1402 361.006 38.7339C360.938 35.2954 361.768 31.8987 363.415 28.8794C364.976 26.0831 367.241 23.743 369.985 22.0906C372.795 20.4093 376.016 19.5377 379.292 19.5723C382.715 19.4633 386.101 20.3169 389.064 22.0359C391.651 23.6272 393.76 25.8875 395.168 28.5782C396.578 31.3685 397.292 34.4584 397.249 37.5842C397.249 38.2686 397.249 38.9255 397.249 39.5825C397.191 40.1707 397.063 40.7498 396.866 41.3071H370.313C370.498 42.9659 371.091 44.5529 372.041 45.9254C372.991 47.2978 374.267 48.4128 375.754 49.1701C377.242 49.9274 378.894 50.3032 380.563 50.2638C382.231 50.2244 383.864 49.771 385.314 48.9444C386.712 48.1032 387.878 46.9273 388.708 45.5226L395.88 49.0539C394.636 51.7834 392.556 54.046 389.94 55.5141C386.953 57.2563 383.542 58.1375 380.085 58.0598C376.555 58.1469 373.068 57.2564 370.012 55.4867ZM373.57 28.8794C371.9 30.3494 370.788 32.3508 370.422 34.5457H387.777C387.64 32.456 386.71 30.4975 385.177 29.071C383.563 27.6278 381.455 26.8629 379.292 26.9358C377.215 26.8894 375.189 27.5777 373.57 28.8794Z" fill="#202847"/>
<path d="M399.959 6.76126H408.855V57.2386H399.959V6.76126Z" fill="#202847"/>
<path d="M413.783 6.76126H422.679V57.2386H413.783V6.76126Z" fill="#202847"/>
<path d="M36.681 0H29.7555C28.0035 0 27.155 1.39606 27.155 3.09324C27.155 4.79042 28.0035 6.21386 29.7555 6.21386C29.8642 6.23333 29.9624 6.29084 30.0326 6.37609C30.1028 6.46134 30.1404 6.56879 30.1387 6.67921V14.207H36.2978V6.67921C36.2961 6.56879 36.3337 6.46134 36.4039 6.37609C36.4741 6.29084 36.5723 6.23333 36.681 6.21386C38.433 6.21386 39.2816 4.81779 39.2816 3.09324C39.2816 1.36869 38.3235 0 36.681 0Z" fill="url(#paint0_linear_63_11144)"/>
<path d="M0 44.8931C0.248399 36.2338 3.86285 28.0124 10.0756 21.9753C16.2884 15.9382 24.61 12.561 33.2729 12.561C41.9358 12.561 50.2574 15.9382 56.4701 21.9753C62.6829 28.0124 66.2974 36.2338 66.5458 44.8931V45.7691H0V44.8931Z" fill="url(#paint1_linear_63_11144)"/>
<path d="M61.5638 51.1891H4.76312C4.13532 51.1891 3.51371 51.3132 2.93404 51.5542C2.35437 51.7953 1.82808 52.1486 1.38543 52.5938C0.942778 53.039 0.592507 53.5673 0.354757 54.1484C0.117007 54.7294 -0.00352939 55.3517 7.86678e-05 55.9795V64H66.3269V55.9795C66.3305 55.3517 66.2099 54.7294 65.9722 54.1484C65.7344 53.5673 65.3842 53.039 64.9415 52.5938C64.4989 52.1486 63.9726 51.7953 63.3929 51.5542C62.8132 51.3132 62.1916 51.1891 61.5638 51.1891Z" fill="url(#paint2_linear_63_11144)"/>
<path d="M40.0753 45.769H26.361V51.2163H40.0753V45.769Z" fill="url(#paint3_linear_63_11144)"/>
<path d="M7.00786 39.2267C10.9497 25.2934 18.5322 19.1617 26.3612 18.5047C26.3612 18.5047 16.7803 23.9795 16.7803 39.2267H7.00786Z" fill="#F8F5ED"/>
<path opacity="0.4" d="M0 44.8931C0.248399 36.2338 3.86285 28.0124 10.0756 21.9753C16.2884 15.9382 24.61 12.561 33.2729 12.561C41.9358 12.561 50.2574 15.9382 56.4701 21.9753C62.6829 28.0124 66.2974 36.2338 66.5458 44.8931V45.7691H0V44.8931Z" fill="url(#paint4_linear_63_11144)"/>
</g>
<defs>
<linearGradient id="paint0_linear_63_11144" x1="27.7572" y1="18.8879" x2="33.752" y2="2.84688" gradientUnits="userSpaceOnUse">
<stop stop-color="#666666"/>
<stop offset="1" stop-color="#AEB0B3"/>
</linearGradient>
<linearGradient id="paint1_linear_63_11144" x1="14.8914" y1="25.4577" x2="48.3422" y2="43.5518" gradientUnits="userSpaceOnUse">
<stop stop-color="#E77709"/>
<stop offset="1" stop-color="#E6A700"/>
</linearGradient>
<linearGradient id="paint2_linear_63_11144" x1="18.3953" y1="83.4081" x2="43.9624" y2="41.6904" gradientUnits="userSpaceOnUse">
<stop offset="0.14" stop-color="#6F6F6F"/>
<stop offset="1" stop-color="#B5B7BA"/>
</linearGradient>
<linearGradient id="paint3_linear_63_11144" x1="28.4688" y1="48.479" x2="48.2874" y2="48.479" gradientUnits="userSpaceOnUse">
<stop stop-color="#5C5C5C"/>
<stop offset="1" stop-color="#A2A4A7"/>
</linearGradient>
<linearGradient id="paint4_linear_63_11144" x1="10.1009" y1="47.9316" x2="43.5518" y2="29.8375" gradientUnits="userSpaceOnUse">
<stop stop-color="#E77709"/>
<stop offset="1" stop-color="#E6A700"/>
</linearGradient>
<clipPath id="clip0_63_11144">
<rect width="422.679" height="64" fill="white"/>
</clipPath>
</defs>
</svg>
