<svg width="24" height="24" viewBox="0 0 24 24" fill="none" xmlns="http://www.w3.org/2000/svg">
<g clip-path="url(#clip0_305_27971)">
<path d="M3.75 20.25L7.25 9.75L14.25 16.75L3.75 20.25Z" stroke="#121331" stroke-width="1.5" stroke-linecap="round" stroke-linejoin="round"/>
<path d="M13.04 10.2898C13.69 9.63977 14.4 10.3498 15.05 9.69977C15.7 9.04977 14.99 8.33977 15.64 7.69977C16.29 7.05977 17 7.75977 17.65 7.10977C18.3 6.45977 17.59 5.74977 18.24 5.09977C18.89 4.44977 19.6 5.15977 20.25 4.50977" stroke="#121331" stroke-width="1.5" stroke-linecap="round" stroke-linejoin="round"/>
<circle cx="12.75" cy="4.75" r="0.75" fill="#121331"/>
<circle cx="19.25" cy="11.25" r="0.75" fill="#121331"/>
<path d="M10.25 8.25V6.25C10.25 4.87 9.13 3.75 7.75 3.75" stroke="#121331" stroke-width="1.5" stroke-linecap="round" stroke-linejoin="round"/>
<path d="M15.75 13.75H17.75C19.13 13.75 20.25 14.87 20.25 16.25" stroke="#121331" stroke-width="1.5" stroke-linecap="round" stroke-linejoin="round"/>
</g>
<defs>
<clipPath id="clip0_305_27971">
<rect width="24" height="24" fill="white"/>
</clipPath>
</defs>
</svg>
